{"title":"The.Countess 2009 720p.BRRip.x264.Feel-Free","uid":6032940,"size":2441433901,"categoryP":"video","categoryS":"hd___movies","magnet":"?xt=urn:btih:bb2fc4bbf6e8469dae650b12895bfb29a8978cd5&amp;dn=The.Countess+2009+720p.BRRip.x264.Feel-Free&amp;tr=udp%3A%2F%2Ftracker.openbittorrent.com%3A80&amp;tr=udp%3A%2F%2Fopen.demonii.com%3A1337&amp;tr=udp%3A%2F%2Ftracker.coppersurfer.tk%3A6969&amp;tr=udp%3A%2F%2Fexodus.desync.com%3A6969","seeders":0,"leechers":1,"uploader":"neon","files":-1,"time":1292141240,"description":"\nGenre:Biography | Drama | History\nLanguage:English\n &lt;a href=&quot; http://www.imdb.com/title/tt0496634/&quot; rel=&quot;nofollow&quot; target=&quot;_NEW&quot;&gt; http://www.imdb.com/title/tt0496634/&lt;/a&gt;\nSource:1080p.BluRay.x264.CiNEFiLE\n\n\nFile size : 2.27 GiB\nDuration : 1h 39mn\nOverall bit rate : 3 258 Kbps\n\n\nVideo\nFormat : AVC\nFormat/Info : Advanced Video Codec\nFormat profile : &lt;a class=&quot;__cf_email__&quot; href=&quot;/cdn-cgi/l/email-protection&quot; data-cfemail=&quot;df97b6b8b79f93ecf1ee&quot;&gt;[email&amp;#160;protected]&lt;/a&gt;&lt;script cf-hash='f9e31' type=&quot;text/javascript&quot;&gt;\n/* &lt;![CDATA[ */!function(){try{var t=&quot;currentScript&quot;in document?document.currentScript:function(){for(var t=document.getElementsByTagName(&quot;script&quot;),e=t.length;e--;)if(t[e].getAttribute(&quot;cf-hash&quot;))return t[e]}();if(t&amp;&amp;t.previousSibling){var e,r,n,i,c=t.previousSibling,a=c.getAttribute(&quot;data-cfemail&quot;);if(a){for(e=&quot;&quot;,r=parseInt(a.substr(0,2),16),n=2;a.length-n;n+=2)i=parseInt(a.substr(n,2),16)^r,e+=String.fromCharCode(i);e=document.createTextNode(e),c.parentNode.replaceChild(e,c)}}}catch(u){}}();/* ]]&gt; */&lt;/script&gt;\nFormat settings, CABAC : Yes\nFormat settings, ReFrames : 4 frames\nFormat settings, GOP : M=1, N=2\nCodec ID : H264\nDuration : 1h 39mn\nBit rate : 2 899 Kbps\nWidth : 1 280 pixels\nHeight : 536 pixels\nDisplay aspect ratio : 2.35:1\nFrame rate mode : Variable\nFrame rate : 24.000 fps\nColor space : YUV\nChroma subsampling : 4:2:0\nBit depth : 8 bits\nScan type : Progressive\nBits/(Pixel*Frame) : 0.176\nStream size : 1.99 GiB (88%)\nWriting library : x264\n\nAudio\nID : 1\nFormat : AC-3\nFormat/Info : Audio Coding 3\nMode extension : CM (complete main)\nCodec ID : 2000\nDuration : 1h 39mn\nBit rate mode : Constant\nBit rate : 384 Kbps\nChannel(s) : 6 channels\nChannel positions : Front: L C R, Side: L R, LFE\nSampling rate : 48.0 KHz\nBit depth : 16 bits\nStream size : 274 MiB (12%)\nAlignment : Aligned on interleaves\nInterleave, duration : 32 ms (0.77 video frame)\n\n\nPlot:\nA 17th century Hungarian countess embarks on a murderous undertaking, with the belief that bathing in the blood of virgins will preserve her beauty.\n &lt;a href=&quot;\nhttp://www.rapidhdd.com/images/647556vlcsnap-2010-12-12-08h55m45s124.png&quot; rel=&quot;nofollow&quot; target=&quot;_NEW&quot;&gt;\nhttp://www.rapidhdd.com/images/647556vlcsnap-2010-12-12-08h55m45s124.png&lt;/a&gt; &lt;a href=&quot;\nhttp://www.rapidhdd.com/images/459808vlcsnap-2010-12-12-08h56m11s135.png&quot; rel=&quot;nofollow&quot; target=&quot;_NEW&quot;&gt;\nhttp://www.rapidhdd.com/images/459808vlcsnap-2010-12-12-08h56m11s135.png&lt;/a&gt; &lt;a href=&quot;\nhttp://www.rapidhdd.com/images/381165vlcsnap-2010-12-12-08h56m22s244.png&quot; rel=&quot;nofollow&quot; target=&quot;_NEW&quot;&gt;\nhttp://www.rapidhdd.com/images/381165vlcsnap-2010-12-12-08h56m22s244.png&lt;/a&gt; &lt;a href=&quot;\nhttp://www.rapidhdd.com/images/580550vlcsnap-2010-12-12-08h56m39s156.png&quot; rel=&quot;nofollow&quot; target=&quot;_NEW&quot;&gt;\nhttp://www.rapidhdd.com/images/580550vlcsnap-2010-12-12-08h56m39s156.png&lt;/a&gt;","torrent":{"xt":"urn:btih:bb2fc4bbf6e8469dae650b12895bfb29a8978cd5","amp;dn":"The.Countess+2009+720p.BRRip.x264.Feel-Free","amp;tr":["udp%3A%2F%2Ftracker.openbittorrent.com%3A80","udp%3A%2F%2Fopen.demonii.com%3A1337","udp%3A%2F%2Ftracker.coppersurfer.tk%3A6969","udp%3A%2F%2Fexodus.desync.com%3A6969"],"infoHash":"bb2fc4bbf6e8469dae650b12895bfb29a8978cd5","infoHashBuffer":{"type":"Buffer","data":[187,47,196,187,246,232,70,157,174,101,11,18,137,91,251,41,168,151,140,213]},"announce":[],"urlList":[]}}